<svg id="visual" viewBox="0 0 900 600" width="900" height="600" xmlns="http://www.w3.org/2000/svg" xmlns:xlink="http://www.w3.org/1999/xlink" version="1.1"><rect x="0" y="0" width="900" height="600" fill="#c8d7e2"></rect><defs><linearGradient id="grad1_0" x1="33.3%" y1="0%" x2="100%" y2="100%"><stop offset="20%" stop-color="#35a5e4" stop-opacity="1"></stop><stop offset="80%" stop-color="#35a5e4" stop-opacity="1"></stop></linearGradient></defs><defs><linearGradient id="grad1_1" x1="33.3%" y1="0%" x2="100%" y2="100%"><stop offset="20%" stop-color="#35a5e4" stop-opacity="1"></stop><stop offset="80%" stop-color="#5fafe3" stop-opacity="1"></stop></linearGradient></defs><defs><linearGradient id="grad1_2" x1="33.3%" y1="0%" x2="100%" y2="100%"><stop offset="20%" stop-color="#7eb9e3" stop-opacity="1"></stop><stop offset="80%" stop-color="#5fafe3" stop-opacity="1"></stop></linearGradient></defs><defs><linearGradient id="grad1_3" x1="33.3%" y1="0%" x2="100%" y2="100%"><stop offset="20%" stop-color="#7eb9e3" stop-opacity="1"></stop><stop offset="80%" stop-color="#98c3e3" stop-opacity="1"></stop></linearGradient></defs><defs><linearGradient id="grad1_4" x1="33.3%" y1="0%" x2="100%" y2="100%"><stop offset="20%" stop-color="#b0cde2" stop-opacity="1"></stop><stop offset="80%" stop-color="#98c3e3" stop-opacity="1"></stop></linearGradient></defs><defs><linearGradient id="grad1_5" x1="33.3%" y1="0%" x2="100%" y2="100%"><stop offset="20%" stop-color="#b0cde2" stop-opacity="1"></stop><stop offset="80%" stop-color="#c8d7e2" stop-opacity="1"></stop></linearGradient></defs><defs><linearGradient id="grad2_0" x1="0%" y1="0%" x2="66.7%" y2="100%"><stop offset="20%" stop-color="#35a5e4" stop-opacity="1"></stop><stop offset="80%" stop-color="#35a5e4" stop-opacity="1"></stop></linearGradient></defs><defs><linearGradient id="grad2_1" x1="0%" y1="0%" x2="66.7%" y2="100%"><stop offset="20%" stop-color="#5fafe3" stop-opacity="1"></stop><stop offset="80%" stop-color="#35a5e4" stop-opacity="1"></stop></linearGradient></defs><defs><linearGradient id="grad2_2" x1="0%" y1="0%" x2="66.7%" y2="100%"><stop offset="20%" stop-color="#5fafe3" stop-opacity="1"></stop><stop offset="80%" stop-color="#7eb9e3" stop-opacity="1"></stop></linearGradient></defs><defs><linearGradient id="grad2_3" x1="0%" y1="0%" x2="66.7%" y2="100%"><stop offset="20%" stop-color="#98c3e3" stop-opacity="1"></stop><stop offset="80%" stop-color="#7eb9e3" stop-opacity="1"></stop></linearGradient></defs><defs><linearGradient id="grad2_4" x1="0%" y1="0%" x2="66.7%" y2="100%"><stop offset="20%" stop-color="#98c3e3" stop-opacity="1"></stop><stop offset="80%" stop-color="#b0cde2" stop-opacity="1"></stop></linearGradient></defs><defs><linearGradient id="grad2_5" x1="0%" y1="0%" x2="66.7%" y2="100%"><stop offset="20%" stop-color="#c8d7e2" stop-opacity="1"></stop><stop offset="80%" stop-color="#b0cde2" stop-opacity="1"></stop></linearGradient></defs><g transform="translate(900, 0)"><path d="M0 432.7C-80.1 423.9 -160.1 415.1 -216.3 374.7C-272.5 334.3 -304.8 262.2 -336.9 194.5C-369 126.8 -400.8 63.4 -432.7 0L0 0Z" fill="#bcd2e2"></path><path d="M0 360.6C-66.7 353.2 -133.5 345.9 -180.3 312.2C-227.1 278.6 -254 218.5 -280.7 162.1C-307.5 105.6 -334 52.8 -360.6 0L0 0Z" fill="#a4c8e2"></path><path d="M0 288.4C-53.4 282.6 -106.8 276.7 -144.2 249.8C-181.7 222.9 -203.2 174.8 -224.6 129.7C-246 84.5 -267.2 42.3 -288.4 0L0 0Z" fill="#8bbee3"></path><path d="M0 216.3C-40 211.9 -80.1 207.6 -108.2 187.3C-136.3 167.1 -152.4 131.1 -168.4 97.3C-184.5 63.4 -200.4 31.7 -216.3 0L0 0Z" fill="#6fb4e3"></path><path d="M0 144.2C-26.7 141.3 -53.4 138.4 -72.1 124.9C-90.8 111.4 -101.6 87.4 -112.3 64.8C-123 42.3 -133.6 21.1 -144.2 0L0 0Z" fill="#4daae4"></path><path d="M0 72.1C-13.3 70.6 -26.7 69.2 -36.1 62.4C-45.4 55.7 -50.8 43.7 -56.1 32.4C-61.5 21.1 -66.8 10.6 -72.1 0L0 0Z" fill="#35a5e4"></path></g><g transform="translate(0, 600)"><path d="M0 -432.7C85 -426.8 170.1 -420.9 216.3 -374.7C262.6 -328.5 270.1 -242.2 299.6 -173C329.2 -103.8 381 -51.9 432.7 0L0 0Z" fill="#bcd2e2"></path><path d="M0 -360.6C70.9 -355.6 141.7 -350.7 180.3 -312.2C218.8 -273.8 225 -201.8 249.7 -144.2C274.4 -86.5 317.5 -43.3 360.6 0L0 0Z" fill="#a4c8e2"></path><path d="M0 -288.4C56.7 -284.5 113.4 -280.6 144.2 -249.8C175.1 -219 180 -161.4 199.8 -115.3C219.5 -69.2 254 -34.6 288.4 0L0 0Z" fill="#8bbee3"></path><path d="M0 -216.3C42.5 -213.4 85 -210.4 108.2 -187.3C131.3 -164.3 135 -121.1 149.8 -86.5C164.6 -51.9 190.5 -26 216.3 0L0 0Z" fill="#6fb4e3"></path><path d="M0 -144.2C28.3 -142.3 56.7 -140.3 72.1 -124.9C87.5 -109.5 90 -80.7 99.9 -57.7C109.7 -34.6 127 -17.3 144.2 0L0 0Z" fill="#4daae4"></path><path d="M0 -72.1C14.2 -71.1 28.3 -70.1 36.1 -62.4C43.8 -54.8 45 -40.4 49.9 -28.8C54.9 -17.3 63.5 -8.7 72.1 0L0 0Z" fill="#35a5e4"></path></g></svg>